<?xml version="1.0" standalone="no"?>
<!DOCTYPE svg PUBLIC "-//W3C//DTD SVG 20010904//EN"
 "http://www.w3.org/TR/2001/REC-SVG-20010904/DTD/svg10.dtd">
<svg version="1.0" xmlns="http://www.w3.org/2000/svg"
 width="1024.000000pt" height="1024.000000pt" viewBox="0 0 1024.000000 1024.000000"
 preserveAspectRatio="xMidYMid meet">
<metadata>
Created by potrace 1.16, written by Peter Selinger 2001-2019
</metadata>
<g transform="translate(0.000000,1024.000000) scale(0.100000,-0.100000)"
fill="#000000" stroke="none">
<path d="M0 5120 l0 -5120 5120 0 5120 0 0 5120 0 5120 -5120 0 -5120 0 0
-5120z m5178 3390 c172 0 650 -66 729 -100 21 -9 43 -73 30 -87 -3 -3 -75 8
-159 25 -281 57 -368 66 -673 66 -291 0 -480 -17 -689 -62 l-80 -17 -50 -85
-51 -85 -90 -32 c-143 -51 -367 -147 -370 -158 -2 -5 -6 -22 -9 -37 -14 -64
-83 -87 -132 -45 -71 61 3 175 87 133 28 -14 34 -13 112 21 45 19 150 61 232
93 l150 59 32 53 c40 65 40 70 6 62 -71 -16 -360 -118 -467 -163 -208 -90
-541 -283 -564 -328 -5 -10 -12 -45 -16 -78 -18 -165 -11 -149 -85 -210 -38
-30 -72 -55 -77 -55 -5 1 -18 15 -29 33 -11 17 -39 42 -63 55 -41 23 -77 78
-70 109 5 21 185 160 355 273 497 330 1052 515 1648 551 99 6 187 14 195 19 8
4 17 4 18 -1 2 -5 38 -9 80 -9z m-55 -120 c13 -11 28 -31 31 -45 8 -30 -16
-80 -45 -95 -29 -16 -77 -2 -99 29 l-20 26 -123 -8 c-67 -4 -149 -11 -182 -15
-58 -7 -60 -8 -97 -61 -21 -30 -36 -56 -34 -58 2 -2 71 4 152 13 176 20 485
22 659 5 186 -19 517 -87 618 -127 17 -6 17 -5 4 27 -53 125 -59 133 -112 146
-56 14 -246 49 -315 57 -42 5 -46 4 -65 -27 -17 -26 -27 -33 -62 -35 -34 -3
-44 1 -62 24 -47 60 -14 134 61 134 30 0 42 -6 60 -30 16 -22 30 -30 54 -30
42 0 251 -36 339 -58 l69 -18 48 -105 47 -104 98 -38 c54 -21 106 -41 115 -44
20 -6 47 16 41 34 -2 6 0 14 6 17 15 10 9 -38 -7 -49 -10 -8 21 -28 135 -84
176 -86 190 -95 175 -114 -9 -11 -44 3 -185 73 -463 229 -855 321 -1367 321
-253 -1 -381 -12 -603 -57 -152 -30 -297 -70 -313 -87 -7 -7 -31 -66 -54 -132
-24 -66 -48 -126 -54 -134 -6 -8 -63 -39 -126 -70 -63 -31 -152 -76 -198 -100
-80 -42 -83 -43 -115 -28 -69 33 -207 87 -220 87 -39 0 -354 -263 -496 -415
-43 -45 -51 -59 -40 -67 11 -8 11 -9 -3 -4 -22 7 -81 -58 -216 -239 -122 -164
-220 -326 -302 -499 -73 -153 -80 -176 -52 -176 12 0 24 -5 28 -12 5 -8 0 -9
-14 -6 -12 4 -22 3 -22 0 0 -4 -41 -27 -91 -52 -84 -41 -93 -49 -111 -90 -18
-41 -18 -47 -4 -72 21 -35 20 -60 -5 -92 -16 -20 -29 -26 -59 -26 -69 0 -102
69 -59 124 13 16 30 26 47 26 23 0 30 7 47 53 18 48 25 54 81 82 34 17 68 36
77 43 8 7 31 52 51 100 20 48 43 99 51 113 13 23 11 34 -22 127 l-35 101 36
59 36 59 -24 50 c-13 27 -29 69 -36 92 -11 42 -10 45 26 100 64 96 232 312
319 409 14 15 77 -10 143 -57 39 -29 48 -31 125 -31 l83 0 90 81 c110 100 321
259 344 259 16 0 81 -24 196 -73 l60 -26 190 96 c104 52 193 101 197 109 4 7
27 68 52 135 24 67 47 125 52 130 10 10 168 56 290 83 l91 21 54 80 c62 93 48
88 278 106 l154 12 32 34 c36 38 69 42 107 13z m1114 -92 c33 -31 32 -90 -3
-117 -36 -28 -70 -26 -101 5 -21 21 -24 32 -19 62 10 67 76 94 123 50z m210
-74 c57 -25 153 -73 214 -105 61 -32 116 -56 122 -52 5 3 7 1 4 -4 -4 -6 27
-32 71 -59 247 -153 523 -383 705 -587 l60 -68 -17 -35 c-9 -20 -19 -68 -22
-107 l-6 -72 61 -82 c70 -95 70 -95 176 -59 39 14 70 24 71 23 0 -1 19 -29 41
-62 44 -65 117 -188 178 -300 21 -38 43 -73 49 -77 16 -11 21 13 5 24 -10 7
-7 7 9 3 16 -5 22 -2 22 9 0 9 4 16 10 16 13 0 -7 -50 -26 -64 -12 -10 -11
-20 13 -74 25 -55 31 -62 51 -57 25 6 30 -10 7 -23 -13 -7 -10 -23 24 -113 21
-57 42 -118 45 -135 l7 -30 -42 5 -43 6 -52 128 c-103 250 -263 557 -291 557
-8 0 -12 4 -9 9 5 7 -21 51 -68 118 -4 5 -84 -23 -86 -30 -7 -22 11 -46 39
-52 77 -17 83 -122 8 -148 -25 -9 -63 8 -83 38 -15 23 -15 29 -2 64 14 36 14
42 -2 79 -10 21 -44 74 -76 118 -33 43 -61 81 -64 85 -3 4 -38 10 -79 14 l-74
7 27 -33 c181 -223 416 -605 460 -747 7 -20 70 -62 96 -62 5 0 10 11 10 24 0
23 49 76 70 76 23 0 59 -25 69 -47 16 -35 14 -57 -9 -86 -11 -14 -20 -31 -20
-39 0 -7 -9 -28 -21 -47 -18 -30 -19 -40 -10 -75 18 -71 61 -273 61 -289 0 -8
20 -28 45 -44 25 -15 48 -37 50 -48 8 -33 25 -255 26 -328 1 -67 1 -67 -45
-115 -50 -51 -59 -71 -54 -123 3 -36 3 -36 96 -30 7 1 12 16 12 39 0 31 12 53
68 128 l68 91 -7 79 c-4 43 -11 100 -14 127 l-7 47 40 0 c23 0 43 -3 46 -8 12
-20 43 -371 37 -429 -1 -8 -16 -13 -41 -13 -44 0 -47 6 -52 89 l-3 44 -47 -61
c-40 -50 -48 -68 -48 -102 l0 -41 50 2 c28 2 50 7 50 11 0 5 4 7 8 4 4 -2 30
-7 56 -10 56 -7 61 -9 53 -31 -5 -13 -33 -15 -185 -15 l-179 0 -6 -152 c-4
-84 -15 -207 -26 -273 -11 -65 -19 -120 -18 -121 4 -3 221 -13 295 -14 65 0
72 -2 72 -20 0 -19 -7 -20 -188 -20 l-189 0 -35 -143 c-20 -79 -59 -205 -88
-281 l-52 -139 27 -73 27 -73 -53 -100 c-29 -55 -51 -102 -48 -104 2 -2 29
-17 60 -34 l55 -31 42 84 c47 94 48 99 27 120 -26 26 -19 44 15 38 29 -6 31
-4 56 52 69 154 193 561 182 595 -2 6 -27 -8 -55 -31 -41 -32 -55 -51 -66 -88
-11 -39 -11 -50 0 -67 35 -52 -3 -125 -65 -125 -49 0 -82 32 -82 80 0 43 24
69 72 79 28 6 34 13 46 53 10 38 24 56 70 92 58 47 83 53 149 40 l29 -6 -18
-86 c-39 -180 -112 -409 -172 -545 -14 -32 -26 -63 -25 -70 0 -9 2 -9 6 1 6
15 59 16 69 1 4 -8 9 -7 15 2 7 12 9 12 9 0 0 -9 4 -10 13 -4 6 5 31 11 55 12
39 2 42 1 42 -24 0 -24 -3 -26 -37 -25 -21 1 -73 2 -115 1 l-77 -1 -55 -110
c-31 -60 -56 -111 -56 -114 0 -2 9 -2 19 1 10 3 28 0 40 -6 20 -11 20 -13 4
-38 -10 -15 -18 -31 -19 -37 0 -6 -2 -17 -2 -23 -3 -18 -21 -16 -29 2 -3 9 2
22 12 29 16 11 2 21 -119 86 -96 52 -136 79 -136 92 0 10 23 60 51 113 l51 95
-17 50 -16 50 -64 -129 c-35 -71 -76 -148 -90 -172 -26 -41 -27 -44 -15 -95
14 -58 16 -53 -42 -125 -26 -34 -26 -35 -15 -121 l11 -86 -29 -39 c-139 -184
-401 -473 -431 -473 -6 0 -14 7 -18 15 -3 10 19 38 66 83 117 110 197 196 291
314 66 83 87 116 83 132 -3 11 -8 51 -12 88 -7 66 -6 67 30 111 39 48 42 61
25 116 -10 34 -7 42 60 165 109 201 219 480 275 702 54 214 77 393 83 643 l6
233 53 60 c62 70 61 62 43 278 -13 145 -20 161 -80 197 -20 12 -29 27 -33 57
-4 23 -22 106 -41 184 l-35 144 25 43 25 42 -30 6 c-52 11 -180 68 -180 81 0
21 -153 315 -211 406 -111 174 -214 311 -320 426 -117 126 -307 299 -433 394
l-131 98 -14 99 c-7 54 -15 101 -17 105 -3 4 -57 32 -120 63 l-116 54 -22 -26
c-49 -56 -146 -18 -146 56 0 36 32 77 64 83 36 7 84 -17 91 -44 5 -19 31 -36
113 -76 177 -86 165 -74 186 -191 l18 -101 71 -53 c120 -89 256 -205 382 -328
l120 -116 81 -6 82 -5 6 30 c3 17 6 51 6 77 l0 46 -142 142 c-134 133 -276
262 -288 263 -3 0 -7 -33 -9 -74 l-2 -73 74 -69 c69 -63 78 -68 115 -66 33 3
43 -1 62 -25 41 -52 4 -123 -65 -123 -47 0 -78 40 -70 90 6 35 4 39 -69 104
l-76 68 0 102 0 101 -93 66 c-196 141 -451 283 -669 373 l-38 15 23 35 c12 19
26 35 31 36 5 0 56 -21 113 -46z m-1020 -169 c140 -18 299 -48 403 -77 232
-63 507 -176 690 -285 113 -66 131 -75 128 -66 -4 13 22 53 33 53 6 0 8 -4 5
-9 -4 -5 -1 -11 5 -13 7 -2 7 -12 0 -31 -10 -26 -8 -30 36 -60 99 -69 294
-230 396 -327 82 -78 240 -251 274 -299 1 -2 9 2 18 9 20 17 29 7 16 -17 -8
-15 -2 -30 27 -72 20 -29 38 -48 40 -42 2 6 8 11 14 11 7 0 7 -5 -1 -14 -9
-10 0 -30 37 -87 251 -384 408 -815 464 -1269 10 -80 17 -105 28 -105 8 0 21
-4 28 -8 7 -5 12 -4 12 2 0 17 37 13 43 -4 8 -19 -8 -28 -36 -19 -51 17 -57
13 -57 -34 0 -31 5 -49 17 -57 16 -12 16 -15 2 -32 -14 -15 -18 -54 -22 -223
-9 -308 -45 -515 -143 -809 -30 -90 -54 -165 -54 -167 0 -2 9 -4 20 -4 22 0
23 -1 14 -24 -4 -12 -11 -13 -24 -6 -16 9 -27 -9 -98 -153 -89 -183 -145 -277
-166 -277 -29 0 -24 32 15 93 51 77 156 292 203 413 117 303 180 622 192 970
6 172 6 174 -15 174 -26 0 -29 37 -5 47 43 16 -29 492 -113 743 -103 309 -235
577 -392 792 -47 65 -60 77 -78 73 -25 -6 -31 13 -12 32 24 24 -273 340 -469
498 -326 263 -768 486 -1122 566 -19 4 -64 15 -100 23 -250 60 -631 81 -908
52 -174 -19 -402 -63 -511 -101 -58 -19 -77 -22 -83 -13 -10 16 -10 20 0 33
21 30 395 109 611 130 174 17 465 12 638 -10z m-1880 -227 c67 -63 -21 -177
-91 -116 -37 32 -43 76 -16 111 27 34 74 36 107 5z m-617 -328 c38 -72 -25
-145 -93 -109 -30 16 -37 28 -37 70 0 35 18 61 50 71 22 7 69 -12 80 -32z
m487 24 c4 -10 -1 -20 -11 -26 -58 -33 -238 -181 -344 -283 -534 -515 -840
-1162 -893 -1889 -26 -347 17 -777 103 -1023 12 -35 20 -65 17 -67 -2 -2 -13
-6 -24 -8 -23 -4 -41 44 -80 216 -48 215 -66 377 -70 611 -9 584 133 1113 424
1588 59 96 70 121 61 133 -8 9 -9 14 -2 14 6 0 12 -5 14 -11 2 -7 28 21 58 62
30 41 85 111 122 156 37 45 68 90 68 99 0 10 3 14 6 11 4 -4 69 53 145 127
142 138 351 305 382 306 10 0 20 -7 24 -16z m-856 -57 c-1 -12 -15 -9 -19 4
-3 6 1 10 8 8 6 -3 11 -8 11 -12z m2585 -2 c18 -13 16 -14 -23 -15 -27 0 -63
-11 -105 -33 -77 -40 -261 -179 -296 -224 -15 -17 -54 -110 -88 -205 -34 -95
-65 -182 -69 -192 -7 -15 -5 -17 6 -11 8 4 11 5 7 1 -3 -4 -9 -7 -13 -6 -3 0
-24 -25 -45 -57 -22 -32 -69 -94 -105 -138 -77 -92 -89 -116 -80 -165 13 -79
17 -90 27 -84 6 4 8 3 5 -3 -7 -11 14 -97 33 -133 11 -23 11 -24 -3 -10 -14
13 -90 216 -103 275 -3 14 14 40 61 90 140 149 194 246 264 475 55 178 58 184
89 207 97 71 276 191 321 215 60 31 88 35 117 13z m140 -37 c114 -60 212 -126
267 -180 55 -55 64 -88 10 -37 -55 51 -75 65 -67 48 3 -8 32 -36 64 -64 50
-44 100 -108 100 -130 0 -4 -23 15 -51 42 -56 53 -120 135 -123 158 -3 18 -58
59 -166 120 -151 86 -175 118 -34 43z m-2351 -59 c11 -16 1 -19 -13 -3 -7 8
-8 14 -3 14 5 0 13 -5 16 -11z m-90 -249 c3 -5 2 -10 -4 -10 -5 0 -13 5 -16
10 -3 6 -2 10 4 10 5 0 13 -4 16 -10z m2844 -135 c15 -22 35 -60 44 -85 18
-48 14 -44 -36 38 -18 29 -51 80 -75 115 l-44 62 42 -45 c23 -25 55 -63 69
-85z m-2204 55 c3 -5 -1 -10 -9 -10 -9 0 -16 5 -16 10 0 6 4 10 9 10 6 0 13
-4 16 -10z m4545 -73 c0 -14 -49 -42 -58 -33 -9 10 21 37 35 32 8 -3 11 -1 8
4 -3 6 -1 10 4 10 6 0 11 -6 11 -13z m-2511 -31 c-2 -2 -35 -16 -74 -31 -230
-86 -410 -228 -588 -465 -47 -63 -100 -140 -116 -170 -17 -30 -31 -51 -31 -46
0 21 68 132 142 232 139 187 337 362 474 420 91 39 209 76 193 60z m108 -48
c30 -29 69 -73 85 -98 l29 -45 -32 40 c-45 54 -98 106 -134 133 -16 12 -24 22
-17 22 7 0 38 -24 69 -52z m106 -33 c83 -109 127 -264 107 -381 -23 -139 -38
-208 -39 -182 -1 14 6 62 14 105 18 92 19 169 4 179 -6 3 -8 18 -5 33 4 15 3
21 -2 14 -5 -9 -15 4 -30 40 -21 50 -21 51 -1 27 l20 -25 -7 25 c-13 46 -52
125 -88 178 -20 28 -36 55 -36 59 0 9 5 3 63 -72z m161 10 c3 -8 1 -15 -4 -15
-6 0 -10 7 -10 15 0 8 2 15 4 15 2 0 6 -7 10 -15z m2 -132 c-11 -11 -17 4 -9
23 7 18 8 18 11 1 2 -10 1 -21 -2 -24z m-3746 -109 c0 -8 -14 -42 -31 -75 -55
-110 -110 -242 -155 -374 -50 -145 -94 -295 -94 -320 0 -9 44 -76 98 -148 l97
-132 -7 -60 c-57 -495 -3 -1018 148 -1437 16 -42 23 -80 20 -94 -6 -21 -3 -24
19 -24 32 0 58 46 34 61 -11 7 -10 10 7 15 18 5 70 110 122 245 2 5 -12 9 -32
9 -19 0 -37 3 -40 8 -10 17 22 41 60 44 l39 3 62 145 62 145 61 5 c34 3 80 4
103 2 l42 -4 89 -199 c85 -192 90 -199 117 -199 16 0 29 -4 29 -9 0 -5 3 -16
6 -25 4 -12 0 -16 -16 -16 -25 0 -24 -7 21 -114 16 -37 29 -70 29 -72 0 -2
-40 -4 -90 -4 -83 0 -90 -1 -90 -20 0 -19 7 -20 95 -20 88 0 95 1 95 20 0 18
7 20 55 20 l55 0 0 80 0 80 44 0 c35 0 45 4 49 20 4 16 14 20 45 20 23 0 44 5
47 10 4 6 -26 10 -83 10 l-89 0 -7 31 c-3 17 -6 112 -6 210 l0 179 105 0 105
0 0 -204 0 -204 35 -6 c19 -4 35 -10 35 -14 -1 -18 -18 -30 -45 -34 l-30 -3
-3 -77 -3 -78 204 0 c144 0 206 -3 215 -12 7 -7 12 -43 12 -90 l0 -77 -36 -7
c-20 -4 -96 -4 -168 -1 -72 4 -197 7 -278 7 l-148 0 0 64 0 64 -45 0 c-25 0
-45 -3 -45 -8 0 -4 11 -32 24 -61 14 -29 23 -56 20 -60 -2 -5 -50 -7 -106 -6
l-102 2 -21 53 c-11 28 -26 52 -33 52 -7 0 -18 11 -24 25 l-11 25 -165 -2
-164 -3 -30 -72 -31 -73 -108 0 c-60 0 -109 3 -109 8 0 4 9 21 20 37 25 38 25
55 1 55 -12 0 -28 -19 -49 -62 -38 -76 -103 -163 -122 -163 -26 0 -20 21 21
70 22 27 52 69 66 93 23 38 25 47 13 65 -11 18 -9 23 13 39 l26 19 -19 42
c-55 125 -129 433 -160 672 -32 237 -29 614 5 827 4 22 -11 48 -77 135 -45 59
-83 110 -85 112 -7 9 -12 -8 -31 -111 l-19 -106 52 -69 53 -68 -6 -184 -5
-184 -63 -67 -64 -67 15 -152 c27 -269 72 -492 105 -523 17 -16 19 -16 35 2
15 16 16 26 6 67 -6 26 -15 77 -21 112 -9 50 -18 70 -41 92 -55 51 -23 139 51
139 75 0 108 -95 50 -143 -35 -30 -36 -41 -14 -159 13 -72 19 -88 34 -88 23 0
70 -55 70 -82 0 -11 -14 -33 -30 -50 -25 -24 -36 -29 -58 -23 -39 10 -61 33
-68 74 -9 50 -7 48 -64 41 l-50 -6 -11 40 c-20 70 -59 270 -59 298 0 15 -6 33
-14 41 -8 8 -11 18 -6 23 5 5 4 47 0 94 -18 170 -22 406 -11 575 7 94 14 178
17 188 4 14 -1 17 -31 17 -22 0 -34 4 -30 10 3 6 -1 10 -9 10 -9 0 -16 7 -16
15 0 12 10 15 40 13 25 -1 40 -7 40 -15 0 -16 -12 -17 -28 -1 -9 9 -12 8 -12
-5 0 -11 8 -17 23 -17 22 0 25 6 41 108 51 318 167 684 302 954 51 102 51 102
85 77 16 -11 29 -27 29 -35z m6175 37 c-3 -6 -11 -11 -16 -11 -5 0 -4 6 3 14
14 16 24 13 13 -3z m-2955 -31 c0 -11 -4 -20 -8 -20 -4 0 -8 9 -8 20 0 11 4
20 8 20 4 0 8 -9 8 -20z m-3426 -12 c16 -26 -4 -41 -37 -29 -15 6 -27 16 -27
22 0 8 4 8 14 0 12 -10 13 -8 9 9 -5 17 -2 21 12 19 10 -2 23 -12 29 -21z
m3286 7 c0 -8 -4 -15 -10 -15 -5 0 -7 7 -4 15 4 8 8 15 10 15 2 0 4 -7 4 -15z
m677 -15 c1 -11 -2 -20 -8 -20 -5 0 -9 9 -9 20 0 11 4 20 8 20 4 0 8 -9 9 -20z
m-2331 -20 c14 0 23 -4 20 -8 -3 -5 -15 -8 -28 -7 -17 1 -24 8 -25 26 -1 14 0
17 3 7 3 -11 15 -18 30 -18z m4664 26 c0 -3 -4 -8 -10 -11 -5 -3 -10 -1 -10 4
0 6 5 11 10 11 6 0 10 -2 10 -4z m-3055 -46 c8 0 18 7 23 16 8 14 10 14 25 0
20 -20 37 -21 37 -1 0 8 5 15 10 15 6 0 9 -6 8 -12 -2 -7 3 -12 11 -10 8 2 17
-2 21 -9 9 -14 30 -3 30 17 0 8 5 14 10 14 6 0 10 -5 10 -11 0 -11 25 -39 35
-39 3 0 5 6 4 13 -3 27 2 37 19 36 10 0 12 -3 5 -6 -7 -2 -13 -11 -13 -19 0
-14 16 -18 53 -15 9 1 17 -4 17 -11 1 -9 5 -7 14 5 16 20 45 13 47 -12 1 -14
2 -14 6 2 5 21 23 23 23 2 0 -20 15 -19 36 2 16 16 16 14 12 -42 -8 -93 -71
-276 -135 -395 -41 -76 -115 -168 -159 -199 -35 -24 -126 -33 -145 -14 -7 7 5
9 39 5 68 -6 113 18 173 92 88 110 190 337 174 387 -6 17 -9 19 -16 8 -7 -12
-9 -12 -9 0 0 9 -6 7 -19 -7 -23 -28 -31 -28 -31 -1 0 18 -4 20 -22 14 -13 -4
-32 -7 -43 -8 -11 -1 -23 -6 -27 -12 -4 -6 -8 -2 -8 8 0 9 -3 17 -7 18 -65 7
-95 4 -100 -8 -4 -11 -9 -9 -20 7 -17 23 -48 28 -39 5 3 -9 0 -15 -8 -15 -8 0
-17 12 -20 26 -6 24 -31 30 -31 7 0 -6 -3 -15 -7 -19 -5 -4 -8 0 -8 8 0 9 -7
21 -15 28 -13 11 -16 8 -21 -19 -9 -42 -20 -39 -19 4 1 19 -3 36 -9 37 -6 0
-15 2 -21 3 -5 2 -16 3 -24 4 -8 0 -12 4 -8 7 3 4 0 13 -8 21 -21 21 -19 31
16 64 30 28 79 40 79 18 0 -6 8 -3 18 7 16 16 17 16 20 1 2 -9 10 -17 17 -17z
m345 26 c0 -3 -4 -8 -10 -11 -5 -3 -10 -1 -10 4 0 6 5 11 10 11 6 0 10 -2 10
-4z m50 -10 c0 -3 -4 -8 -10 -11 -5 -3 -10 -1 -10 4 0 6 5 11 10 11 6 0 10 -2
10 -4z m-2003 -88 c-2 -13 -4 -5 -4 17 -1 22 1 32 4 23 2 -10 2 -28 0 -40z
m3223 12 c0 -5 -4 -10 -10 -10 -5 0 -10 5 -10 10 0 6 5 10 10 10 6 0 10 -4 10
-10z m-823 -125 c1 -27 -1 -41 -4 -30 -3 11 -10 23 -17 27 -8 6 -7 8 2 8 6 0
12 9 12 20 0 13 -7 20 -20 20 -17 0 -20 -7 -20 -49 0 -43 3 -50 23 -54 19 -4
18 -4 -5 -6 -28 -1 -28 0 -28 60 0 60 0 60 28 57 25 -3 27 -6 29 -53z m-1712
6 c9 -15 -35 -40 -115 -65 -166 -52 -169 -46 -14 24 119 54 120 54 129 41z
m1102 -31 c2 -21 -2 -30 -12 -30 -8 0 -15 5 -15 10 0 6 6 10 13 10 7 0 8 3 2
8 -15 11 -17 32 -2 32 6 0 13 -14 14 -30z m-1305 -91 c36 -11 39 -13 18 -16
-14 -2 -45 -8 -70 -14 -25 -6 -56 -13 -70 -16 -35 -6 -122 -55 -113 -63 5 -4
30 -15 57 -25 33 -12 70 -39 116 -84 36 -36 50 -52 31 -35 -83 73 -196 119
-272 112 -21 -2 -39 -1 -39 3 0 21 264 163 287 155 6 -3 31 -11 55 -17z m1734
-95 c-7 -96 -26 -143 -77 -189 l-33 -30 27 35 c45 57 65 110 73 193 4 42 9 77
12 77 3 0 2 -39 -2 -86z m-3326 55 c0 15 16 14 33 -4 8 -8 18 -11 21 -7 4 3 4
-1 0 -11 -8 -22 -40 -14 -69 16 -13 14 -14 16 -2 8 11 -9 17 -10 17 -2z m1241
-190 c-26 -75 -10 -183 53 -350 18 -49 31 -89 29 -89 -10 0 -54 113 -86 220
l-35 114 -20 -44 c-34 -75 -60 -153 -67 -203 -4 -26 -11 -47 -16 -47 -45 0 78
397 133 431 19 12 21 3 9 -32z m4290 14 c14 -36 75 -285 84 -341 5 -32 13 -45
30 -52 29 -11 55 -48 55 -78 0 -30 -42 -72 -72 -72 -31 0 -67 26 -79 57 -7 19
-4 34 13 64 20 36 21 42 9 109 -7 39 -28 128 -46 198 -18 70 -31 130 -28 135
9 15 24 6 34 -20z m-2976 -3 c10 -11 16 -20 13 -20 -3 0 -13 9 -23 20 -10 11
-16 20 -13 20 3 0 13 -9 23 -20z m911 -109 c-19 -36 -80 -130 -83 -127 -2 2 5
19 16 37 29 47 27 88 -8 129 -15 19 -32 46 -36 60 -6 20 6 13 53 -34 34 -33
60 -62 58 -65z m-2496 38 c23 -12 39 -24 36 -26 -2 -3 -24 7 -48 21 -52 31
-44 34 12 5z m-403 -31 c-3 -8 -6 -5 -6 6 -1 11 2 17 5 13 3 -3 4 -12 1 -19z
m2094 -5 c13 -16 12 -17 -3 -4 -10 7 -18 15 -18 17 0 8 8 3 21 -13z m-2091
-43 c0 -5 -5 -10 -11 -10 -5 0 -7 5 -4 10 3 6 8 10 11 10 2 0 4 -4 4 -10z
m2950 -86 c10 -43 22 -96 25 -116 5 -31 52 -111 122 -207 17 -23 17 -24 -2
-13 -11 5 -43 35 -72 64 -49 53 -72 105 -57 129 5 9 2 10 -9 6 -12 -4 -16 -1
-15 11 3 39 -3 82 -11 82 -4 0 -17 -30 -28 -67 l-19 -68 4 110 c3 73 9 118 19
133 8 13 17 22 19 19 2 -2 13 -40 24 -83z m-2803 20 c-3 -3 -12 -4 -19 -1 -8
3 -5 6 6 6 11 1 17 -2 13 -5z m-1569 -16 c-3 -7 -11 -13 -18 -13 -7 0 -15 6
-17 13 -3 7 4 12 17 12 13 0 20 -5 18 -12z m3792 -61 c0 -2 -15 -16 -32 -33
l-33 -29 29 33 c28 30 36 37 36 29z m-2310 -47 c0 -5 -4 -10 -10 -10 -5 0 -10
5 -10 10 0 6 5 10 10 10 6 0 10 -4 10 -10z m410 -149 c-30 -77 -55 -123 -94
-174 -40 -52 -38 -58 8 -24 62 47 60 37 -6 -25 -40 -38 -77 -84 -93 -117 l-26
-53 37 28 38 29 -41 -55 c-22 -30 -48 -69 -56 -86 -21 -41 -30 -94 -17 -94 5
0 10 4 10 9 0 14 42 83 47 77 2 -2 -4 -21 -15 -43 -17 -33 -19 -51 -13 -145 3
-59 3 -104 -1 -100 -4 4 -14 45 -23 92 -8 47 -20 100 -24 118 -11 37 -2 77 29
129 11 19 28 64 37 101 9 37 26 76 37 87 44 44 78 98 128 200 54 111 73 134
38 46z m2616 -114 c55 -40 194 -186 194 -202 0 -4 -6 -2 -14 4 -8 6 -33 16
-57 20 -44 9 -44 9 -9 10 l35 2 -38 20 c-21 11 -35 24 -32 29 3 4 -32 42 -77
84 -90 84 -91 99 -2 33z m-62 -132 c-10 -8 -26 -14 -34 -14 -9 0 -4 6 10 14
33 19 49 19 24 0z m-2246 -24 c32 -17 22 -24 -14 -10 -16 6 -65 11 -108 12
-51 0 -73 3 -60 9 27 11 155 4 182 -11z m2518 -78 c22 -14 39 -53 24 -53 -5 0
-29 14 -53 30 -25 17 -52 30 -62 30 -9 0 -14 4 -10 9 7 13 74 2 101 -16z
m-4771 -8 c0 -13 -8 -21 -22 -23 -19 -3 -23 1 -23 23 0 22 4 26 23 23 14 -2
22 -10 22 -23z m2255 16 c18 -5 2 -10 -60 -18 -47 -6 -94 -15 -105 -19 -18 -6
-18 -5 -5 9 28 29 114 44 170 28z m165 -41 c39 -10 34 -11 -55 -14 -41 -2 -88
-7 -105 -11 -21 -5 -27 -4 -20 3 10 11 93 30 130 30 11 0 34 -4 50 -8z m2274
-72 c30 -37 42 -64 61 -143 25 -102 21 -128 -17 -106 -16 10 -16 10 6 11 17 0
22 4 17 16 -3 9 -6 20 -6 25 0 5 -7 9 -15 9 -8 0 -14 3 -13 8 1 4 -2 34 -7 67
-7 53 -13 65 -50 101 -39 38 -47 41 -94 40 -28 -1 -51 -2 -51 -3 0 -1 13 -22
30 -45 22 -32 33 -66 44 -128 8 -47 11 -89 7 -93 -5 -5 -8 3 -8 17 0 14 -5 38
-11 53 -5 16 -17 53 -27 84 -18 63 -65 115 -93 104 -12 -4 -11 0 5 17 21 20
26 21 57 10 28 -10 40 -10 68 1 40 17 48 13 97 -45z m-2071 35 c16 -4 20 -8
11 -13 -7 -5 -20 -3 -29 3 -16 10 -104 1 -190 -20 -45 -11 -12 10 37 23 52 14
134 17 171 7z m2166 -23 c29 -17 58 -42 65 -57 20 -44 41 -157 30 -167 -8 -9
-14 11 -10 41 1 6 -3 14 -9 18 -5 3 -10 15 -10 25 0 10 -8 38 -19 62 -13 32
-29 49 -61 66 -23 12 -49 22 -58 22 -15 0 -15 2 -2 10 19 13 13 14 74 -20z
m-2086 0 c-15 -4 -42 -18 -60 -30 l-33 -22 35 31 c20 17 46 30 60 30 l25 -1
-27 -8z m191 -22 c-24 -10 -54 -29 -66 -40 -13 -12 -23 -17 -23 -12 0 5 14 20
30 34 l31 25 -65 -1 c-36 -1 -63 3 -60 8 3 4 48 8 101 7 l96 -1 -44 -20z m466
-7 c29 -16 71 -34 93 -41 55 -14 74 -36 116 -135 35 -81 46 -135 27 -135 -15
0 -22 18 -9 22 8 3 0 29 -25 79 -53 106 -73 139 -81 132 -3 -3 -6 -1 -6 4 0 6
-22 17 -50 24 -27 7 -50 16 -50 20 0 5 -17 11 -37 15 -21 4 -42 10 -48 14 -9
7 -34 5 -195 -21 -36 -6 -73 -11 -82 -12 -10 -1 -18 -4 -18 -8 0 -12 195 3
228 17 18 9 43 14 55 12 18 -4 16 -6 -13 -14 l-35 -10 93 -34 92 -33 50 -96
c54 -105 59 -121 33 -121 -14 0 -15 2 -4 9 10 7 11 13 2 30 -7 11 -15 21 -20
21 -5 0 -25 33 -45 74 l-36 74 -77 27 c-43 15 -89 27 -103 27 -14 -1 -66 -3
-117 -6 -80 -5 -94 -3 -115 13 -12 11 -20 22 -17 25 4 4 64 13 135 22 71 8
143 19 159 23 44 13 44 13 100 -18z m90 3 c38 -23 38 -24 10 -18 -16 4 -46 15
-65 25 -32 17 -33 18 -10 18 14 0 43 -11 65 -25z m108 -41 c18 -4 40 -21 59
-47 44 -61 100 -164 96 -177 -2 -6 -17 13 -33 42 -48 90 -105 158 -149 179
-22 11 -32 18 -21 14 11 -3 33 -8 48 -11z m823 -15 c-9 -13 -21 -32 -27 -43
-6 -11 -22 -29 -36 -39 -32 -24 -22 -5 32 57 43 49 58 61 31 25z m569 16 c20
-8 100 -124 85 -124 -5 0 -10 3 -10 8 -1 12 -81 96 -95 98 -7 1 -21 7 -32 13
-16 9 -15 10 9 11 14 0 34 -3 43 -6z m1995 -44 c0 -16 -8 -19 -62 -22 -35 -2
-109 -2 -165 0 -94 3 -103 5 -103 23 0 18 8 19 165 19 157 0 165 -1 165 -20z
m-3745 -45 c68 -44 157 -167 135 -188 -7 -7 -10 -7 -7 -1 7 13 -21 56 -32 49
-5 -2 -17 14 -27 37 -24 54 -40 68 -75 68 -18 0 -28 4 -24 10 3 6 -1 10 -10
10 -8 0 -24 5 -34 12 -15 9 -26 8 -54 -5 -38 -18 -71 -21 -102 -7 -16 7 -10 9
25 11 25 1 51 2 59 1 21 -1 44 25 28 31 -6 3 5 6 25 6 27 1 54 -9 93 -34z
m3745 -34 c0 -25 -36 -30 -196 -28 -126 2 -129 3 -132 25 l-3 22 165 0 c155 0
166 -1 166 -19z m-2656 -15 c-3 -8 -13 -17 -22 -21 -13 -5 -13 -2 3 15 21 24
26 25 19 6z m2812 -6 c0 -10 -11 -15 -33 -16 -26 -1 -33 3 -33 17 0 15 7 18
33 16 21 -1 33 -7 33 -17z m-2159 -5 c0 -8 -4 -15 -9 -15 -4 0 -8 7 -8 15 0 8
4 15 8 15 5 0 9 -7 9 -15z m48 -5 c19 -8 19 -9 -2 -9 -12 -1 -25 4 -28 9 -7
12 2 12 30 0z m226 -10 c22 0 39 -3 39 -7 0 -5 -37 -9 -83 -10 -49 0 -74 2
-62 7 17 7 14 9 -15 13 -19 2 -8 3 24 1 32 -2 76 -4 97 -4z m-687 -18 c6 -10
-51 -8 -61 1 -3 4 8 7 25 7 17 0 33 -4 36 -8z m-202 -27 c23 -15 52 -25 75
-26 30 0 34 -2 18 -9 -20 -8 -76 -2 -85 9 -17 21 -60 38 -86 34 -22 -3 -26 -2
-14 6 24 17 53 13 92 -14z m109 8 c13 -15 12 -16 -11 -9 -14 4 -41 11 -60 16
l-35 8 46 1 c32 1 51 -4 60 -16z m574 10 c-16 -3 -34 -8 -39 -13 -5 -5 -16 -6
-25 -2 -13 5 -11 8 9 13 14 4 39 7 55 7 l30 -1 -30 -4z m70 -3 c-3 -5 -12 -7
-20 -3 -21 7 -19 13 6 13 11 0 18 -4 14 -10z m448 -6 c84 -8 88 -19 5 -18 -35
1 -126 -5 -203 -12 -122 -11 -427 -34 -665 -49 -41 -3 -70 -3 -65 0 9 4 129
14 599 52 67 5 79 9 84 26 5 21 20 21 245 1z m1413 0 c-3 -9 -6 -20 -6 -25 0
-11 -317 -12 -324 -1 -15 25 16 32 164 35 85 1 159 4 164 5 4 1 5 -5 2 -14z
m-2838 -37 c29 -27 15 -37 -56 -37 -50 0 -53 -1 -48 -22 6 -22 5 -22 -4 -3 -9
18 -19 20 -77 17 -44 -3 -63 0 -59 7 4 5 -10 19 -30 29 -20 10 -33 22 -28 25
11 7 74 -31 74 -44 0 -5 23 -9 50 -9 54 0 59 4 33 32 -10 11 -31 18 -57 19
-39 1 -40 1 -12 9 31 10 71 -5 95 -34 9 -10 30 -16 57 -16 46 0 70 18 35 27
-12 3 -21 9 -21 14 0 5 -17 9 -37 10 -33 1 -35 2 -13 8 30 9 67 -3 98 -32z
m102 23 c29 -22 15 -27 -16 -6 -11 8 -36 16 -55 19 -34 4 -33 4 6 5 26 1 49
-5 65 -18z m636 13 c-10 -11 -36 -12 -36 -2 0 5 10 9 22 9 12 0 18 -3 14 -7z
m51 1 c-3 -3 -12 -4 -19 -1 -8 3 -5 6 6 6 11 1 17 -2 13 -5z m-167 -20 c0 -2
-24 -3 -52 -3 -48 2 -49 2 -18 8 33 6 70 3 70 -5z m-573 -10 c-3 -3 -12 -4
-19 -1 -8 3 -5 6 6 6 11 1 17 -2 13 -5z m364 -4 c-19 -5 -44 -4 -55 0 -15 6
-5 9 34 8 50 0 52 -1 21 -8z m82 3 c-7 -2 -19 -2 -25 0 -7 3 -2 5 12 5 14 0
19 -2 13 -5z m-311 -13 c64 0 18 -11 -68 -16 -86 -5 -114 4 -37 13 20 2 39 6
42 9 3 2 11 2 19 -1 7 -3 28 -5 44 -5z m2598 -10 c0 -5 -12 -10 -27 -10 -22 0
-25 2 -13 10 20 13 40 13 40 0z m-3590 -10 c0 -5 -2 -10 -4 -10 -3 0 -8 5 -11
10 -3 6 -1 10 4 10 6 0 11 -4 11 -10z m525 -20 l20 -9 -20 0 c-11 0 -29 4 -40
9 l-20 9 20 0 c11 0 29 -4 40 -9z m3110 -15 c0 -19 -7 -20 -145 -21 -166 -2
-180 0 -180 27 0 19 7 19 163 17 154 -3 162 -4 162 -23z m-3857 8 c-10 -2 -26
-2 -35 0 -10 3 -2 5 17 5 19 0 27 -2 18 -5z m1442 -3 c-146 -16 -387 -33 -401
-27 -8 3 2 6 21 7 19 1 98 7 175 14 77 7 169 13 205 13 l65 0 -65 -7z m-1307
-10 c89 -13 120 -20 116 -25 -2 -2 -56 5 -119 15 -63 10 -105 18 -92 19 13 1
56 -4 95 -9z m434 4 c-3 -3 -12 -4 -19 -1 -8 3 -5 6 6 6 11 1 17 -2 13 -5z
m1940 -31 c-3 -10 -5 -4 -5 12 0 17 2 24 5 18 2 -7 2 -21 0 -30z m-3822 17 c3
-5 1 -10 -4 -10 -6 0 -11 5 -11 10 0 6 2 10 4 10 3 0 8 -4 11 -10z m1655 6 c0
-3 -4 -8 -10 -11 -5 -3 -10 -1 -10 4 0 6 5 11 10 11 6 0 10 -2 10 -4z m50 -18
c0 -6 -6 -5 -15 2 -8 7 -15 14 -15 16 0 2 7 1 15 -2 8 -4 15 -11 15 -16z m110
13 c0 -4 -11 -6 -25 -3 -14 2 -25 6 -25 8 0 2 11 4 25 4 14 0 25 -4 25 -9z
m-197 -8 c-7 -2 -21 -2 -30 0 -10 3 -4 5 12 5 17 0 24 -2 18 -5z m685 -10
c-10 -2 -28 -2 -40 0 -13 2 -5 4 17 4 22 1 32 -1 23 -4z m-1021 -9 c-3 -3 -12
-4 -19 -1 -8 3 -5 6 6 6 11 1 17 -2 13 -5z m868 -4 c-33 -4 -78 -8 -100 -7
l-40 0 45 7 c25 4 70 7 100 7 l55 0 -60 -7z m-770 -10 c27 -7 27 -8 5 -8 -14
0 -38 4 -55 8 -27 7 -27 8 -5 8 14 0 39 -4 55 -8z m565 -10 c-36 -4 -92 -7
-125 -7 l-60 0 60 7 c33 4 89 7 125 7 l65 0 -65 -7z m3218 -20 c3 -19 -2 -20
-157 -20 -149 0 -161 1 -161 18 0 10 3 22 6 25 4 4 75 4 158 2 142 -5 151 -6
154 -25z m-3663 11 c26 -6 31 -9 15 -9 -14 -1 -43 3 -65 7 -26 6 -31 9 -15 9
14 1 43 -3 65 -7z m188 -8 c-18 -2 -48 -2 -65 0 -18 2 -4 4 32 4 36 0 50 -2
33 -4z m1609 -24 c29 -6 67 -18 83 -26 32 -16 105 -82 105 -95 0 -4 -34 -8
-76 -8 -56 0 -75 -3 -72 -12 3 -9 35 -14 100 -16 l96 -3 15 -42 c9 -23 19 -54
23 -69 l6 -28 -61 0 c-34 0 -61 -4 -61 -10 0 -6 29 -10 66 -10 l65 0 -3 -37
-3 -38 -73 0 -74 0 -14 -34 c-24 -58 -22 -60 74 -63 l87 -3 -3 -30 c-2 -16
-12 -49 -22 -72 l-19 -43 -61 0 c-67 0 -150 -17 -150 -31 0 -5 35 -9 78 -9
103 0 111 -7 64 -52 -39 -38 -97 -70 -146 -82 -92 -22 -235 4 -301 56 -39 30
-18 38 108 38 64 0 107 4 107 10 0 6 -53 10 -140 10 l-140 0 -29 52 c-17 29
-36 74 -43 100 l-12 48 -48 0 c-40 0 -48 -3 -48 -19 0 -15 -11 -19 -71 -24
-79 -7 -74 -5 -83 -32 -6 -19 -2 -20 74 -17 l80 4 0 -111 0 -111 -100 0 -100
0 0 103 0 102 -55 -3 c-54 -4 -55 -3 -46 20 6 18 19 25 60 32 44 8 51 12 51
32 0 22 4 24 55 24 52 0 55 1 55 26 0 46 17 64 61 64 25 0 42 5 45 14 3 8 18
16 35 20 24 4 29 10 29 34 0 16 6 50 14 75 12 41 12 46 -3 50 -13 4 -12 6 5
12 12 4 26 16 31 28 19 41 104 125 147 147 77 37 155 46 238 29z m-1866 -9
l44 0 -3 -327 -2 -328 -97 -3 -98 -3 0 153 -1 153 -22 -28 c-22 -26 -26 -27
-95 -22 -40 2 -72 0 -72 -5 0 -5 -10 -11 -22 -13 -13 -2 19 -5 70 -6 50 0 92
-4 92 -7 0 -3 -33 -59 -72 -125 l-73 -120 -54 3 -54 3 -53 85 c-29 47 -53 88
-54 93 0 4 17 7 38 7 31 0 41 5 55 30 l18 30 -74 0 -74 0 -27 40 c-25 38 -38
50 -35 33 1 -5 1 -25 0 -45 l-1 -38 -80 0 -79 0 -7 -50 -7 -50 -70 0 -70 0 6
46 c6 54 17 64 75 64 l42 0 0 215 0 215 88 0 88 0 75 -117 c42 -65 98 -155
125 -200 35 -59 55 -82 69 -82 15 0 48 46 139 197 66 108 125 201 130 205 6 4
31 5 55 2 24 -3 63 -5 87 -5z m724 -200 c75 -171 89 -195 110 -199 41 -5 57
-51 19 -51 -13 0 -19 -5 -16 -12 2 -7 20 -50 38 -95 l34 -82 55 -3 c43 -2 56
-7 58 -20 3 -15 -4 -18 -42 -18 -25 0 -46 -2 -46 -4 0 -2 9 -25 20 -51 11 -26
20 -51 20 -56 0 -5 -47 -9 -105 -9 l-104 0 -18 50 c-10 28 -21 50 -26 50 -4 0
-12 11 -17 25 l-10 25 -164 0 c-155 0 -166 -1 -176 -20 -8 -16 -21 -20 -59
-20 -27 0 -64 -3 -82 -7 -28 -7 -21 -9 43 -13 l77 -5 -19 -42 -19 -43 -105 0
-105 0 51 113 c69 155 118 270 118 279 0 4 -16 8 -35 8 -38 0 -40 2 -25 31 8
14 21 19 48 19 l38 0 56 128 c31 70 66 149 78 175 l21 48 102 -3 101 -3 86
-195z m618 18 l-3 -183 -92 -3 -92 -3 -3 93 -3 93 -75 3 c-44 2 -78 8 -82 15
-4 7 -8 36 -8 65 l0 52 33 0 c55 0 65 17 16 26 l-44 9 65 6 c36 3 116 6 178 7
l112 2 -2 -182z m994 170 c6 -10 8 -10 8 0 0 9 32 12 125 12 l125 0 -2 -182
-3 -183 -62 -3 c-50 -2 -63 -7 -68 -21 -3 -10 -19 -21 -35 -24 -20 -4 -29 -13
-32 -29 -3 -22 -8 -23 -101 -28 -54 -3 -100 -3 -102 -1 -8 8 18 56 43 80 22
21 39 26 95 29 l67 4 0 89 0 89 -80 0 -80 0 0 65 0 65 34 0 c18 0 39 7 47 16
12 14 8 15 -34 9 -30 -5 -47 -4 -47 3 0 19 91 27 102 10z m1392 -27 c4 -5 4
-15 1 -23 -4 -11 -37 -13 -163 -10 -86 2 -158 5 -161 7 -2 2 -1 11 2 20 5 13
31 15 161 15 85 0 157 -4 160 -9z m-1157 -441 l23 0 0 -160 0 -160 -100 0
-100 0 0 166 0 167 77 -7 c42 -3 87 -6 100 -6z m-3225 -162 c5 -172 13 -158
-97 -158 -110 0 -103 -9 -104 131 -1 127 5 132 151 137 l47 2 3 -112z m3011
47 c2 -12 -38 -19 -61 -10 -14 5 -14 7 -2 16 18 11 60 8 63 -6z m-2313 -145
l0 -60 -100 0 -100 0 0 60 0 60 100 0 100 0 0 -60z m-2301 -232 c76 -143 217
-350 333 -490 172 -207 506 -514 531 -489 21 21 40 13 33 -13 -5 -21 3 -31 72
-79 109 -76 248 -156 377 -217 200 -95 497 -199 530 -186 8 3 16 0 19 -7 5 -9
7 -9 12 1 9 18 41 14 46 -6 4 -14 29 -23 119 -40 176 -34 268 -43 484 -47 236
-5 402 11 644 59 148 30 168 32 197 20 24 -10 35 -11 40 -3 5 8 12 5 23 -8 16
-20 98 -53 131 -53 9 0 40 12 70 28 l55 27 6 60 c4 33 7 89 8 125 1 36 5 70 9
76 4 7 63 44 132 84 l125 72 55 -11 c30 -6 64 -14 76 -17 15 -4 50 14 125 64
138 93 190 138 183 160 -5 14 -4 14 4 3 8 -12 23 -4 76 39 35 29 67 59 70 66
7 19 40 18 56 -1 10 -12 10 -18 0 -30 -7 -8 -17 -15 -23 -15 -6 0 -25 -13 -42
-29 -62 -58 -213 -175 -309 -239 l-99 -66 -81 21 -81 21 -50 -32 c-27 -18 -80
-49 -116 -69 l-67 -37 -6 -63 c-3 -34 -9 -95 -12 -135 l-7 -73 -68 -35 c-38
-18 -74 -34 -81 -34 -7 0 -63 16 -125 36 l-112 36 -83 -21 c-204 -50 -404 -73
-658 -73 -225 0 -418 16 -564 48 -131 29 -123 29 -131 4 -4 -11 -15 -20 -26
-20 -16 0 -20 6 -17 26 3 25 -1 27 -112 61 -105 31 -280 96 -372 136 -35 16
-37 16 -43 -4 -9 -28 -49 -22 -53 9 -2 16 2 22 15 22 10 0 -27 24 -82 53 -435
230 -804 557 -1095 970 l-83 119 -19 -24 c-9 -12 -18 -19 -18 -14 0 5 7 17 16
27 15 17 13 24 -28 96 -107 186 -109 191 -90 202 9 6 19 10 22 11 3 0 29 -46
59 -102z m2836 63 c46 -20 115 -76 115 -92 0 -4 -25 -26 -56 -49 -50 -37 -57
-40 -72 -27 -38 33 -86 49 -144 48 -89 -1 -138 -34 -176 -120 -18 -39 -21 -41
-24 -20 -4 31 19 76 60 113 17 16 32 38 32 48 0 10 5 18 11 18 6 0 9 -7 6 -14
-4 -10 -1 -13 7 -10 7 3 13 12 13 21 0 12 -8 14 -39 10 -30 -4 -41 -1 -52 15
-8 11 -17 15 -20 10 -3 -6 0 -13 6 -16 7 -3 3 -3 -8 -1 -23 6 -54 -17 -54 -38
0 -9 2 -9 8 -1 12 19 44 13 39 -7 -3 -12 0 -16 9 -12 9 3 14 -1 14 -12 0 -12
-5 -15 -20 -10 -11 3 -20 3 -20 -2 0 -5 -18 -7 -40 -5 -24 3 -40 0 -41 -7 -1
-6 -2 -15 -3 -21 0 -5 -9 -18 -18 -30 -12 -13 -14 -20 -5 -20 9 0 9 -2 -1 -8
-7 -5 -10 -16 -6 -25 3 -10 1 -17 -5 -17 -16 0 -14 49 5 103 28 82 114 163
207 193 64 21 210 13 272 -15z m1337 20 l68 -1 -3 -67 -2 -68 -185 -3 c-201
-4 -230 -11 -230 -57 0 -41 38 -56 158 -66 59 -4 113 -8 120 -8 6 -1 12 -4 12
-9 0 -7 -228 3 -266 12 -30 8 -54 61 -44 97 5 18 5 29 -1 29 -6 0 -7 5 -3 12
6 9 9 9 12 0 8 -24 22 -11 21 21 0 27 -2 29 -9 12 -7 -17 -9 -17 -9 -2 -1 9
-6 17 -12 17 -6 0 -9 -7 -6 -15 4 -8 2 -17 -2 -20 -5 -2 -11 4 -14 15 -3 10 0
21 7 23 6 2 8 7 5 11 -8 9 -40 -4 -34 -14 3 -4 -2 -7 -11 -6 -26 2 -55 -64
-55 -127 -1 -60 10 -79 53 -96 22 -10 22 -10 -5 -10 -20 -1 -32 7 -47 31 -56
92 -22 215 74 265 34 18 148 30 266 27 41 0 105 -2 142 -3z m-3046 -81 c-1
-60 -4 -80 -15 -80 -8 0 -11 7 -8 20 3 11 1 23 -5 26 -5 3 -7 12 -4 20 4 10
-2 14 -19 14 -14 0 -24 3 -24 8 4 22 -3 32 -21 32 -15 0 -20 -7 -20 -29 0 -17
-5 -33 -11 -37 -6 -3 -8 -17 -5 -30 5 -17 2 -24 -9 -24 -8 0 -15 -9 -15 -20 0
-16 -7 -20 -38 -20 -31 0 -38 4 -38 20 0 17 7 20 40 20 l39 0 -7 80 -6 80 84
0 84 0 -2 -80z m442 -247 l-3 -328 -78 -3 c-56 -2 -77 0 -72 8 4 7 31 11 64
10 31 -1 62 -1 69 -1 12 1 13 40 9 214 -6 257 -10 313 -21 324 -4 4 -7 1 -6
-7 5 -30 0 -48 -14 -53 -10 -4 -13 -1 -9 9 3 7 0 14 -6 14 -6 0 -11 7 -11 16
0 14 -3 14 -15 4 -12 -10 -18 -10 -30 0 -13 11 -15 8 -13 -14 2 -21 6 -25 23
-20 19 6 19 6 -2 -13 -13 -11 -23 -34 -25 -58 l-4 -40 -157 -3 c-133 -2 -158
0 -163 13 -3 8 -10 12 -15 9 -5 -3 -9 0 -9 5 0 6 6 11 13 12 6 0 3 4 -8 8 -17
7 -15 9 13 13 23 3 31 1 28 -7 -11 -30 12 -37 127 -39 168 -3 159 -11 151 134
l-7 120 87 0 86 0 -2 -327z m529 230 c31 -74 45 -98 59 -98 20 0 27 -25 11
-36 -5 -4 9 -47 32 -96 53 -116 52 -131 -2 -25 -23 45 -50 91 -59 102 -15 17
-15 20 -3 20 16 0 20 15 7 24 -5 3 -38 6 -74 7 -51 2 -65 5 -61 16 3 7 0 13
-6 13 -15 0 -14 -33 1 -48 7 -7 8 -12 3 -12 -5 0 -2 -6 7 -12 12 -11 58 -129
58 -151 0 -4 -42 -6 -92 -5 l-93 2 83 3 c56 3 82 8 82 16 -1 21 -68 171 -78
175 -5 1 -17 -19 -27 -45 -34 -89 -55 -136 -61 -131 -3 3 2 23 10 44 15 40 29
96 26 103 -1 2 4 7 12 12 10 6 10 11 0 21 -6 6 -12 19 -12 28 1 12 4 11 15 -4
17 -23 19 -9 5 28 -12 31 -45 37 -35 6 3 -11 2 -20 -4 -20 -5 0 -11 -10 -14
-22 -3 -21 -4 -21 -11 -5 -6 12 -3 22 7 30 13 10 14 15 3 29 -11 16 -21 1 -81
-119 -38 -76 -70 -132 -72 -126 -2 5 31 92 74 192 l77 181 86 0 85 0 42 -97z
m1075 -40 l-2 -138 136 138 136 137 107 0 106 0 -110 -108 c-140 -137 -247
-236 -215 -197 14 17 29 35 35 40 5 6 33 37 61 70 51 60 56 78 25 103 -14 12
-14 13 2 8 10 -3 23 -6 28 -6 5 0 9 -7 9 -17 0 -14 2 -14 21 3 19 17 19 19 2
25 -10 3 -18 12 -18 19 0 20 -21 23 -38 5 -9 -8 -20 -15 -24 -14 -20 3 -27 -2
-13 -12 12 -8 10 -9 -7 -4 -19 5 -23 2 -23 -14 0 -12 -6 -21 -16 -21 -9 0 -12
-5 -8 -12 4 -7 3 -8 -4 -4 -12 7 -125 -97 -116 -107 3 -3 1 -8 -5 -12 -6 -3
-11 -1 -11 4 0 6 -5 11 -11 11 -5 0 -7 -6 -3 -12 4 -7 4 -10 -1 -6 -4 4 -14 0
-23 -8 -28 -28 -35 -6 -41 134 -1 7 -6 10 -12 7 -6 -4 -8 -14 -4 -22 4 -13 3
-13 -9 -4 -11 9 -15 9 -19 -1 -3 -7 -6 0 -6 17 -1 22 -4 26 -13 17 -17 -17
-29 -15 -22 3 10 26 -5 16 -20 -12 -8 -17 -13 -52 -12 -90 1 -35 -1 -63 -6
-63 -4 0 -8 -11 -8 -25 0 -22 -4 -25 -40 -25 -33 0 -40 3 -40 20 0 14 9 21 35
26 l35 6 0 139 0 139 83 0 82 0 -3 -137z m308 77 c0 -5 -5 -10 -11 -10 -5 0
-7 5 -4 10 3 6 8 10 11 10 2 0 4 -4 4 -10z m-3824 -147 c132 -247 272 -450
446 -644 37 -42 68 -81 68 -86 0 -5 -11 -20 -25 -33 l-25 -24 -36 35 c-32 30
-147 166 -238 282 -16 20 -34 37 -40 37 -6 0 -5 -4 3 -9 8 -5 10 -14 6 -21 -6
-9 -4 -11 5 -5 9 5 11 4 6 -3 -13 -21 -25 -13 -35 21 -5 17 -10 24 -10 15 -1
-10 -5 -18 -11 -18 -13 0 -13 6 1 31 9 17 13 18 26 7 9 -7 -1 14 -22 47 -149
233 -225 366 -225 397 0 10 41 78 47 78 1 0 28 -48 59 -107z m1397 81 c-4 -11
-9 -12 -19 -3 -18 15 -18 14 5 16 14 1 18 -3 14 -13z m1487 1 c0 -8 -2 -15 -4
-15 -2 0 -6 7 -10 15 -3 8 -1 15 4 15 6 0 10 -7 10 -15z m1230 -5 c0 -5 -4
-10 -10 -10 -5 0 -10 5 -10 10 0 6 5 10 10 10 6 0 10 -4 10 -10z m-688 -42
c-6 -6 -15 -8 -19 -4 -4 4 -1 11 7 16 8 5 17 7 19 4 3 -2 -1 -10 -7 -16z m295
16 c-3 -3 -12 -4 -19 -1 -8 3 -5 6 6 6 11 1 17 -2 13 -5z m-268 -35 c-22 -13
-31 -11 -17 5 7 8 17 12 22 9 4 -3 2 -9 -5 -14z m-3212 -14 c27 -19 37 -61 22
-96 -10 -25 -7 -35 21 -86 42 -75 210 -291 306 -393 49 -52 74 -87 73 -102 0
-13 -8 -59 -17 -103 -12 -57 -22 -80 -32 -80 -18 0 -18 14 0 117 l14 77 -71
74 c-39 41 -103 116 -143 166 -39 50 -74 91 -77 91 -4 0 -4 -3 0 -6 3 -3 -2
-14 -11 -24 -12 -14 -19 -17 -29 -8 -9 7 -17 7 -28 -2 -12 -10 -15 -9 -15 4 0
10 5 14 10 11 6 -3 10 0 10 8 0 7 12 19 26 26 l26 11 -21 33 c-12 17 -36 56
-54 85 -18 29 -37 50 -44 48 -20 -8 -72 14 -83 34 -17 31 -12 85 10 108 24 26
75 29 107 7z m1111 -12 c-22 -5 -20 2 -22 -105 -3 -126 -16 -121 -16 5 l0 107
28 -1 c16 -1 20 -3 10 -6z m51 4 c-2 -1 -12 -9 -22 -16 -15 -12 -17 -12 -11 3
3 9 13 16 22 16 8 0 13 -1 11 -3z m1034 -24 c-7 -2 -19 -2 -25 0 -7 3 -2 5 12
5 14 0 19 -2 13 -5z m2044 -58 c0 -8 -4 -15 -9 -15 -4 0 -8 7 -8 15 0 8 4 15
8 15 5 0 9 -7 9 -15z m-2877 1 c0 -3 -4 -8 -10 -11 -5 -3 -10 -1 -10 4 0 6 5
11 10 11 6 0 10 -2 10 -4z m1070 -31 c0 -11 -12 -15 -45 -15 -33 0 -45 4 -45
15 0 11 12 15 45 15 33 0 45 -4 45 -15z m200 0 c0 -8 -4 -15 -10 -15 -5 0 -10
7 -10 15 0 8 5 15 10 15 6 0 10 -7 10 -15z m37 0 c0 -8 -4 -15 -9 -15 -4 0 -8
7 -8 15 0 8 4 15 8 15 5 0 9 -7 9 -15z m-2572 -3 c6 -4 28 -34 49 -67 113
-173 392 -505 419 -497 35 10 87 -41 87 -86 0 -25 -28 -62 -56 -72 -29 -11
-81 5 -94 30 -13 25 -13 66 2 89 10 16 -1 32 -87 127 -108 120 -211 250 -287
362 -27 39 -55 72 -63 72 -18 0 -20 21 -3 38 14 14 19 15 33 4z m1269 -1 c4
-5 -3 -7 -14 -4 -23 6 -26 13 -6 13 8 0 17 -4 20 -9z m3381 -11 c4 -6 -45 -10
-139 -10 -86 0 -147 4 -151 10 -4 6 45 10 139 10 86 0 147 -4 151 -10z m-1618
-151 l-2 -150 77 3 c49 2 77 -1 75 -7 -2 -6 -39 -10 -83 -10 l-79 0 -3 145
c-2 135 0 170 12 170 2 0 4 -68 3 -151z m-680 119 c-3 -8 -6 -5 -6 6 -1 11 2
17 5 13 3 -3 4 -12 1 -19z m162 -18 c38 -129 198 -180 299 -95 l30 25 62 -46
c52 -38 60 -47 49 -60 -23 -28 -94 -72 -136 -84 l-43 -13 45 -41 c61 -57 87
-121 93 -224 5 -82 5 -84 34 -94 16 -6 33 -21 38 -34 8 -20 17 -24 50 -24 36
0 48 7 110 65 l69 65 71 0 c39 0 81 5 92 11 16 9 24 7 36 -5 15 -15 15 -17 -1
-33 -13 -13 -19 -14 -29 -5 -7 7 -41 12 -81 12 l-70 0 -72 -65 c-67 -60 -76
-65 -119 -65 -42 0 -46 -2 -46 -25 0 -25 1 -25 85 -25 85 0 86 0 128 38 80 73
137 91 137 43 0 -22 -29 -36 -44 -21 -16 16 -23 13 -81 -40 l-55 -50 -85 0
c-78 0 -85 -2 -85 -20 0 -19 7 -20 134 -20 l135 0 68 60 c54 47 73 58 91 53
13 -3 34 0 47 7 29 16 58 6 53 -17 -3 -15 -13 -17 -61 -15 l-57 4 -61 -56
c-57 -53 -63 -56 -113 -56 -29 0 -94 -3 -144 -6 -76 -6 -92 -10 -92 -23 0 -14
9 -16 60 -13 58 4 60 3 107 -41 67 -62 89 -72 120 -56 20 11 26 10 40 -4 16
-16 16 -18 1 -34 -15 -14 -19 -14 -34 -2 -9 7 -27 12 -39 11 -15 -2 -42 14
-81 47 -56 48 -62 51 -116 51 l-58 0 0 -96 c0 -95 -8 -128 -39 -151 -12 -9
-98 -12 -328 -13 -171 0 -319 3 -328 6 -32 12 -45 59 -45 159 l0 95 -51 0
c-46 0 -56 -4 -95 -40 -31 -28 -52 -40 -74 -40 -17 0 -39 -5 -49 -12 -24 -15
-53 -3 -49 19 3 15 13 17 55 15 49 -3 55 -1 96 37 42 39 48 41 106 41 54 0 61
2 61 20 0 17 -7 20 -42 21 -24 0 -81 2 -128 5 -80 5 -87 8 -121 41 l-37 35
-138 -3 c-142 -3 -162 2 -134 36 9 11 17 12 30 5 10 -6 71 -10 135 -10 l115 0
44 -40 43 -40 117 0 c109 0 116 1 116 20 0 18 -7 20 -87 20 l-86 0 -54 51
c-44 42 -56 49 -68 39 -28 -23 -60 21 -34 47 13 13 44 -6 116 -69 42 -38 43
-38 128 -38 84 0 85 0 85 25 0 24 -3 25 -53 25 -52 0 -54 1 -117 66 l-65 66
-147 -4 c-144 -3 -168 1 -150 28 4 6 68 8 159 4 l153 -5 68 -67 c61 -62 71
-68 108 -68 34 0 43 4 52 25 7 14 23 30 37 35 21 8 25 16 25 53 0 59 16 141
36 183 22 46 88 111 130 126 19 6 34 15 34 18 0 3 -16 14 -34 24 -38 20 -86
66 -69 66 5 0 20 -11 32 -24 39 -41 80 -55 161 -54 47 1 88 -4 110 -14 32 -13
40 -13 85 1 45 15 151 78 143 86 -2 2 -27 21 -56 43 -54 40 -54 40 -74 20 -72
-72 -220 -58 -282 26 -27 36 -60 116 -48 116 5 0 14 -18 21 -40z m1301 20 c13
-9 13 -10 0 -9 -8 0 -24 4 -35 9 l-20 9 20 0 c11 0 27 -4 35 -9z m438 -15 c-3
-3 -9 2 -12 12 -6 14 -5 15 5 6 7 -7 10 -15 7 -18z m-2828 -12 c3 -3 -64 -3
-147 -1 -84 1 -153 7 -153 11 0 8 291 -1 300 -10z m282 -3 c-25 -24 -62 -27
-62 -5 0 8 5 15 11 15 5 0 7 -4 4 -10 -3 -5 -1 -10 4 -10 6 0 11 4 11 9 0 9
18 17 44 20 6 0 0 -8 -12 -19z m2216 13 c-15 -2 -42 -2 -60 0 -18 2 -6 4 27 4
33 0 48 -2 33 -4z m-1563 -13 c3 -5 1 -10 -4 -10 -6 0 -11 5 -11 10 0 6 2 10
4 10 3 0 8 -4 11 -10z m1035 -166 l77 -81 78 -2 c107 -2 109 -11 4 -11 l-84
-1 -121 128 c-122 128 -122 128 -143 109 -12 -11 -21 -32 -22 -50 0 -26 -2
-28 -9 -11 -14 33 -11 41 26 68 l36 25 41 -46 c22 -26 74 -83 117 -128z m127
66 c107 -112 161 -178 89 -110 -62 59 -215 226 -197 215 8 -5 57 -52 108 -105z
m571 94 c12 -8 22 -20 22 -26 0 -6 -9 -3 -21 8 -11 10 -41 21 -67 25 l-47 6
45 2 c27 0 55 -5 68 -15z m-2423 -129 c-25 -54 -45 -99 -45 -101 0 -2 35 -4
78 -4 l77 0 27 60 26 60 146 0 146 0 28 -57 c15 -32 30 -60 33 -63 4 -3 38 -4
77 -2 l70 4 -30 65 c-16 36 -27 70 -25 76 3 7 9 1 15 -13 6 -14 22 -50 36 -81
13 -31 22 -60 19 -63 -4 -3 -43 -6 -88 -6 l-82 0 -29 63 -29 63 -80 -2 c-44
-1 -108 -2 -141 -3 l-61 -1 -27 -60 -27 -60 -84 0 c-46 0 -86 3 -88 8 -5 8 94
224 100 218 2 -2 -17 -47 -42 -101z m709 66 c-6 -6 -24 19 -24 34 1 6 7 1 15
-9 8 -11 12 -22 9 -25z m1893 2 c-3 -10 -5 -4 -5 12 0 17 2 24 5 18 2 -7 2
-21 0 -30z m-2847 7 c0 -5 -2 -10 -4 -10 -3 0 -8 5 -11 10 -3 6 -1 10 4 10 6
0 11 -4 11 -10z m-292 -97 c-1 -56 -3 -79 -8 -63 -11 35 -12 162 -1 156 5 -3
9 -45 9 -93z m-73 -94 l70 -5 -77 -2 -76 -2 -4 68 c-2 37 -1 81 2 97 3 17 7
-10 10 -60 l5 -90 70 -6z m3036 150 c-21 -17 -41 -19 -213 -19 l-189 0 3 -62
3 -63 185 -5 185 -6 -192 -2 -193 -2 0 75 0 75 185 0 c178 0 235 8 235 33 0 6
3 7 8 3 4 -4 -4 -16 -17 -27z m-2674 -1 c-3 -8 -6 -5 -6 6 -1 11 2 17 5 13 3
-3 4 -12 1 -19z m3576 -10 c3 -18 9 -68 13 -110 l6 -77 -48 -53 c-27 -29 -111
-117 -187 -194 -124 -127 -138 -144 -128 -162 17 -33 13 -61 -14 -87 -31 -32
-69 -32 -100 0 -48 47 -20 125 44 125 25 0 58 30 216 192 l187 193 -6 40 c-18
132 -19 165 -3 165 9 0 17 -13 20 -32z m-736 0 c-3 -8 -6 -5 -6 6 -1 11 2 17
5 13 3 -3 4 -12 1 -19z m-2840 -50 c-3 -7 -5 -2 -5 12 0 14 2 19 5 13 2 -7 2
-19 0 -25z m2833 22 c0 -38 -126 -121 -162 -107 -8 4 -7 6 5 6 32 2 96 40 124
76 30 38 33 40 33 25z m-2830 -65 c0 -8 -2 -15 -4 -15 -2 0 -6 7 -10 15 -3 8
-1 15 4 15 6 0 10 -7 10 -15z m3855 6 c3 -5 1 -12 -5 -16 -5 -3 -10 1 -10 9 0
18 6 21 15 7z m248 -68 c-7 -2 -19 -2 -25 0 -7 3 -2 5 12 5 14 0 19 -2 13 -5z
m-5771 -25 c-7 -7 -12 -8 -12 -2 0 14 12 26 19 19 2 -3 -1 -11 -7 -17z m33 -8
c3 -5 -1 -10 -10 -10 -9 0 -13 5 -10 10 3 6 8 10 10 10 2 0 7 -4 10 -10z
m5457 -29 l32 -29 -73 -88 c-113 -136 -383 -399 -511 -498 -193 -149 -405
-283 -608 -385 -130 -65 -274 -123 -283 -114 -4 5 -10 24 -14 44 l-7 35 104
44 c57 24 138 61 181 82 67 33 77 42 77 65 0 25 1 25 19 9 18 -17 24 -15 123
45 240 144 537 383 702 566 24 27 27 35 16 48 -14 17 0 21 17 4 11 -11 81 65
151 163 15 21 30 38 34 38 4 0 22 -13 40 -29z m-4598 -382 c21 -16 26 -29 26
-63 0 -36 4 -45 26 -57 14 -7 30 -24 35 -36 11 -31 201 -154 259 -169 49 -12
61 -35 37 -68 -15 -21 -57 -15 -57 8 0 7 -60 53 -132 101 -73 48 -142 102
-154 119 -17 27 -25 31 -59 28 -21 -2 -49 -1 -61 2 -51 13 -62 95 -18 134 31
28 64 28 98 1z m196 -49 c8 -5 11 -10 5 -10 -5 0 -17 5 -25 10 -8 5 -10 10 -5
10 6 0 17 -5 25 -10z m20 -71 c347 -249 809 -440 1219 -504 58 -9 108 -18 112
-20 4 -3 34 -5 67 -6 33 -1 65 -5 71 -8 6 -4 11 -50 13 -106 3 -86 5 -100 21
-103 15 -3 17 7 17 96 0 55 3 107 6 116 8 20 34 21 34 1 0 -14 28 -16 211 -15
199 1 212 0 233 -19 14 -13 29 -18 44 -15 55 15 111 -38 98 -92 -6 -24 -51
-54 -81 -54 -31 0 -65 46 -65 88 0 29 -5 42 -17 47 -10 4 -107 8 -215 8 l-198
2 0 -82 0 -81 113 -7 c61 -3 123 -4 137 -1 14 2 35 5 47 5 13 1 24 10 29 24
l7 22 10 -23 c10 -23 14 -23 81 -17 144 12 143 12 187 71 22 29 49 56 62 59
12 3 61 13 109 23 l87 19 67 -37 c59 -34 70 -36 100 -27 19 6 37 8 40 4 3 -3
3 -24 -1 -46 -6 -39 -9 -42 -58 -56 -116 -35 -412 -85 -589 -100 -43 -4 -81
-11 -84 -16 -4 -6 -10 -6 -18 0 -6 6 -94 11 -201 12 -165 1 -371 16 -470 34
l-30 5 3 73 4 73 -62 10 -63 11 -61 -64 -61 -63 -120 35 c-362 107 -698 262
-975 452 -133 91 -140 99 -133 137 11 57 14 56 113 -15 112 -81 308 -198 437
-263 51 -25 94 -46 97 -46 5 0 -12 89 -20 101 -8 13 -51 30 -88 35 -40 5 -49
16 -37 47 12 32 20 33 52 8 13 -10 42 -28 65 -39 29 -15 43 -30 50 -52 7 -26
18 -35 59 -50 28 -10 116 -42 196 -72 l146 -55 51 26 c28 14 52 28 52 32 0 3
-39 18 -87 33 -249 78 -531 213 -751 358 -148 98 -184 126 -176 139 10 17 30
8 114 -52z m3302 -80 l87 -24 24 23 c29 28 66 28 101 1 54 -42 23 -139 -44
-139 -30 0 -80 40 -80 64 0 14 -39 29 -160 60 -40 11 -48 10 -86 -11 -49 -28
-52 -38 -55 -192 l-3 -104 -123 -59 c-68 -32 -157 -72 -198 -88 l-73 -29 -49
19 c-26 10 -73 28 -103 40 l-56 21 -84 -20 c-126 -30 -200 -37 -200 -19 0 11
29 21 108 37 59 12 121 25 137 30 24 6 53 0 140 -31 l109 -39 46 17 c25 9 104
45 176 79 l132 62 7 131 c8 142 6 138 74 179 41 25 54 25 173 -8z m-12 -59
c47 -47 5 -140 -58 -127 -16 3 -34 1 -40 -5 -8 -8 -11 -6 -11 8 0 10 -4 36 -9
56 -8 32 -7 42 10 63 25 32 79 34 108 5z m-3670 -10 c0 -5 -2 -10 -4 -10 -3 0
-8 5 -11 10 -3 6 -1 10 4 10 6 0 11 -4 11 -10z m1572 -192 c-15 -15 -26 -4
-18 18 5 13 9 15 18 6 9 -9 9 -15 0 -24z m128 -129 c0 -21 -13 -37 -26 -32
-22 8 -17 42 6 40 11 -1 20 -4 20 -8z m2010 1 c0 -5 -2 -10 -4 -10 -3 0 -8 5
-11 10 -3 6 -1 10 4 10 6 0 11 -4 11 -10z m17 -42 c-3 -8 -6 -5 -6 6 -1 11 2
17 5 13 3 -3 4 -12 1 -19z m-2359 -384 c0 -13 -4 -21 -9 -18 -5 3 -9 0 -9 -5
0 -6 -4 -11 -10 -11 -10 0 -14 42 -5 52 13 13 33 2 33 -18z m932 6 c0 -5 -2
-10 -4 -10 -3 0 -8 5 -11 10 -3 6 -1 10 4 10 6 0 11 -4 11 -10z m10 -40 c0 -5
-8 -10 -17 -10 -15 0 -16 2 -3 10 19 12 20 12 20 0z m-115 -9 c3 -6 -4 -9 -15
-8 -11 1 -20 5 -20 9 0 11 28 10 35 -1z m1035 -71 c0 -5 -2 -10 -4 -10 -3 0
-8 5 -11 10 -3 6 -1 10 4 10 6 0 11 -4 11 -10z m3488 -749 c22 -72 124 -171
193 -186 39 -9 36 -21 -8 -36 -79 -25 -173 -120 -188 -190 -9 -39 -18 -37 -35
9 -7 20 -24 54 -37 74 -28 41 -113 103 -155 114 -38 9 -35 18 10 33 84 29 169
117 188 194 9 37 19 34 32 -12z"/>
<path d="M3652 7974 c-14 -25 -3 -53 24 -60 42 -11 72 34 42 64 -17 17 -55 15
-66 -4z"/>
<path d="M3058 7711 c-59 -47 -107 -90 -108 -94 0 -4 15 -14 34 -22 19 -8 42
-26 53 -40 l19 -26 51 41 51 42 7 83 c4 46 6 88 4 93 -2 5 -52 -29 -111 -77z"/>
<path d="M5046 8354 c-21 -21 -17 -42 11 -61 19 -13 24 -12 43 7 19 19 20 24
7 43 -19 28 -40 32 -61 11z"/>
<path d="M5394 8316 c-12 -49 43 -76 70 -33 15 24 -3 51 -37 55 -21 3 -28 -2
-33 -22z"/>
<path d="M2643 7342 c-103 -107 -333 -405 -333 -432 0 -3 16 -4 36 -2 74 9
114 -79 59 -133 -13 -14 -35 -25 -49 -25 -18 0 -32 -13 -57 -51 l-32 -51 22
-69 c12 -38 26 -69 31 -69 6 0 24 28 41 63 97 191 329 507 483 657 62 61 58
73 -22 63 -37 -5 -49 -1 -97 31 -30 20 -57 36 -60 36 -3 0 -13 -8 -22 -18z
m-38 -142 c0 -19 -45 -26 -56 -8 -15 23 -10 29 24 26 20 -2 32 -8 32 -18z"/>
<path d="M2332 6858 c-25 -25 -6 -68 30 -68 9 0 22 9 28 19 13 25 13 27 -6 45
-19 19 -36 20 -52 4z"/>
<path d="M1962 5978 c-28 -28 1 -64 43 -54 40 10 27 66 -15 66 -9 0 -21 -5
-28 -12z"/>
<path d="M6160 8265 c-26 -31 13 -82 44 -56 21 17 21 57 0 65 -23 9 -30 8 -44
-9z"/>
<path d="M6385 8014 c-20 -21 -16 -43 12 -61 19 -13 24 -12 42 6 25 25 26 35
5 55 -20 20 -38 20 -59 0z"/>
<path d="M7270 7371 c-14 -27 -2 -51 25 -51 29 0 48 24 40 50 -8 26 -51 27
-65 1z"/>
<path d="M7732 6828 c-16 -16 -15 -33 4 -52 21 -21 54 -4 54 28 0 33 -35 47
-58 24z"/>
<path d="M8033 6324 c-8 -22 10 -49 32 -49 10 0 22 7 28 16 15 24 1 49 -28 49
-15 0 -28 -7 -32 -16z"/>
<path d="M8090 4175 c-26 -32 13 -81 48 -59 34 22 22 74 -18 74 -10 0 -23 -7
-30 -15z"/>
<path d="M3465 7791 c-11 -36 17 -67 49 -55 38 14 22 74 -19 74 -14 0 -26 -7
-30 -19z"/>
<path d="M2848 7489 c-33 -19 -15 -69 24 -69 15 0 38 27 38 44 0 7 -31 36 -38
36 -4 0 -15 -5 -24 -11z"/>
<path d="M1806 5490 c-20 -94 -35 -500 -18 -500 4 0 24 19 44 43 l36 44 7 179
6 179 -35 40 c-34 39 -35 39 -40 15z"/>
<path d="M1900 4615 c-26 -32 13 -81 48 -59 34 22 22 74 -18 74 -10 0 -23 -7
-30 -15z"/>
<path d="M2648 4369 l-17 -39 -89 0 c-87 0 -102 -5 -102 -36 0 -2 41 -4 90 -4
50 0 90 -2 90 -5 0 -4 -7 -19 -15 -35 -9 -17 -20 -41 -25 -55 l-10 -25 95 0
c100 0 109 5 85 48 -5 9 -24 53 -41 97 -18 44 -35 83 -38 87 -3 4 -14 -11 -23
-33z"/>
<path d="M1954 4215 c-13 -51 46 -77 68 -30 14 30 -3 55 -38 55 -17 0 -25 -7
-30 -25z"/>
<path d="M3180 3949 c0 -12 345 -8 357 5 3 3 -75 6 -175 6 -128 0 -182 -3
-182 -11z"/>
<path d="M2378 3943 c18 -2 45 -2 60 0 15 2 0 4 -33 4 -33 0 -45 -2 -27 -4z"/>
<path d="M8067 5614 c-15 -15 -7 -53 13 -59 27 -8 52 12 48 39 -3 21 -46 35
-61 20z"/>
<path d="M6368 4543 c17 -2 47 -2 65 0 17 2 3 4 -33 4 -36 0 -50 -2 -32 -4z"/>
<path d="M6506 4470 c-60 -19 -104 -87 -113 -176 l-6 -54 -62 0 c-60 0 -62 -1
-78 -35 -9 -20 -17 -38 -17 -40 0 -3 36 -5 80 -5 l79 0 28 -57 c33 -67 73 -96
138 -97 63 -1 125 50 141 116 l6 27 -69 3 c-65 3 -68 4 -65 27 1 13 -3 30 -10
38 -18 22 7 33 80 33 l62 0 0 53 c-1 116 -95 198 -194 167z"/>
<path d="M5258 4340 l-27 -60 -75 6 c-73 5 -116 -5 -116 -26 0 -6 39 -10 91
-10 l91 0 -6 -24 c-3 -13 -9 -31 -12 -40 -5 -14 6 -16 85 -16 72 0 91 3 91 14
0 8 2 20 5 28 3 7 -5 17 -17 23 -13 6 -23 17 -23 25 -1 19 -48 140 -55 140 -3
-1 -17 -27 -32 -60z"/>
<path d="M5482 3973 c3 -14 17 -17 96 -19 83 -2 93 -1 90 14 -3 14 -18 17 -96
20 -84 2 -93 1 -90 -15z"/>
<path d="M5030 3699 c0 -5 5 -7 10 -4 6 3 10 8 10 11 0 2 -4 4 -10 4 -5 0 -10
-5 -10 -11z"/>
<path d="M5250 3699 c0 -5 5 -7 10 -4 6 3 10 8 10 11 0 2 -4 4 -10 4 -5 0 -10
-5 -10 -11z"/>
<path d="M5330 3670 c0 -5 5 -10 10 -10 6 0 10 5 10 10 0 6 -4 10 -10 10 -5 0
-10 -4 -10 -10z"/>
<path d="M5294 3649 c-3 -6 6 -24 21 -39 29 -30 49 -32 38 -3 -5 12 -2 15 8
11 10 -4 15 1 16 12 1 12 -6 18 -23 18 -21 0 -23 -4 -18 -27 l7 -26 -20 20
c-14 14 -18 24 -11 33 7 8 7 12 0 12 -6 0 -14 -5 -18 -11z"/>
<path d="M4916 3613 c-12 -13 -5 -19 26 -21 34 -3 35 -1 2 16 -12 6 -24 8 -28
5z"/>
<path d="M6390 3723 c0 -6 -8 -9 -19 -6 -11 3 -21 -2 -25 -12 -4 -12 -2 -16 7
-12 8 3 20 1 28 -4 12 -7 12 -9 -1 -9 -13 0 -13 -2 -1 -9 15 -10 43 8 34 22
-7 11 9 8 37 -8 22 -13 17 -20 -12 -17 -3 1 -9 -5 -12 -13 -4 -11 5 -14 39
-13 31 0 45 5 45 14 0 7 -6 11 -14 8 -8 -3 -16 3 -19 15 -3 12 -1 21 5 21 5 0
6 5 3 10 -4 6 -10 8 -15 5 -4 -3 -11 1 -13 7 -4 10 -8 10 -15 -1 -8 -11 -11
-11 -16 0 -5 12 -7 12 -12 0 -5 -11 -8 -11 -15 0 -5 9 -9 10 -9 2z"/>
<path d="M6507 3709 c7 -7 15 -10 18 -7 3 3 -2 9 -12 12 -14 6 -15 5 -6 -5z"/>
<path d="M6556 3713 c-12 -12 -6 -19 19 -21 14 -1 25 0 25 3 0 9 -37 24 -44
18z"/>
<path d="M6610 3701 c0 -16 28 -20 34 -5 4 9 -1 14 -14 14 -11 0 -20 -4 -20
-9z"/>
<path d="M6540 3656 c0 -9 5 -16 10 -16 6 0 10 4 10 9 0 6 -4 13 -10 16 -5 3
-10 -1 -10 -9z"/>
<path d="M6577 3664 c-12 -13 -8 -22 14 -27 15 -4 19 -1 17 10 -3 18 -21 27
-31 17z"/>
<path d="M6634 3655 c-18 -13 -16 -14 24 -15 27 0 41 4 37 10 -4 6 -11 8 -16
5 -5 -4 -9 -1 -9 4 0 15 -13 14 -36 -4z"/>
<path d="M6345 3640 c-3 -5 -1 -10 4 -10 6 0 11 5 11 10 0 6 -2 10 -4 10 -3 0
-8 -4 -11 -10z"/>
<path d="M3491 3674 c0 -11 3 -14 6 -6 3 7 2 16 -1 19 -3 4 -6 -2 -5 -13z"/>
<path d="M4000 3660 c-9 -6 -10 -10 -3 -10 6 0 15 5 18 10 8 12 4 12 -15 0z"/>
<path d="M4410 3704 c-15 -8 -19 -14 -10 -14 8 0 20 -10 25 -22 6 -13 16 -22
23 -20 8 1 10 -6 6 -22 -6 -26 16 -41 47 -31 11 4 21 -1 28 -13 10 -18 54 -27
73 -15 9 5 -43 103 -55 103 -4 0 -5 4 -2 10 3 6 -1 7 -9 4 -9 -3 -14 -9 -11
-13 2 -4 -9 -8 -24 -8 -22 0 -28 4 -23 16 3 9 -4 5 -15 -8 l-20 -24 -7 27 c-8
33 0 47 15 26 9 -13 10 -13 7 -1 -6 20 -19 21 -48 5z m80 -81 c0 -21 -3 -24
-9 -14 -5 8 -7 20 -4 28 8 21 13 15 13 -14z m61 -4 c10 -7 8 -8 -8 -6 -28 4
-37 12 -28 27 6 9 9 9 15 0 4 -7 14 -16 21 -21z m32 -28 c10 -1 9 -21 -1 -21
-5 0 -17 6 -28 14 -19 15 -19 15 1 11 11 -2 23 -4 28 -4z"/>
<path d="M4530 3711 c0 -7 -4 -9 -10 -6 -5 3 -10 1 -10 -4 0 -6 4 -11 9 -11
13 0 25 20 17 27 -3 4 -6 1 -6 -6z"/>
<path d="M4391 3661 c-9 -6 -7 -10 8 -14 12 -3 21 -1 21 3 0 14 -15 19 -29 11z"/>
<path d="M6006 3695 c-3 -9 0 -15 9 -15 8 0 15 7 15 15 0 8 -4 15 -9 15 -5 0
-11 -7 -15 -15z"/>
<path d="M5544 3689 c-3 -6 -2 -15 3 -20 5 -5 9 -1 10 11 2 22 -2 25 -13 9z"/>
<path d="M5600 3660 c-13 -8 -13 -10 2 -10 9 0 19 -6 21 -12 3 -7 6 -3 6 10 1
24 -6 27 -29 12z"/>
<path d="M5450 3446 c0 -2 7 -6 15 -10 8 -3 15 -1 15 4 0 6 -7 10 -15 10 -8 0
-15 -2 -15 -4z"/>
<path d="M5495 3440 c3 -5 8 -10 11 -10 2 0 4 5 4 10 0 6 -5 10 -11 10 -5 0
-7 -4 -4 -10z"/>
<path d="M2322 3511 c-8 -4 -12 -21 -10 -37 2 -25 7 -29 32 -29 36 0 56 27 40
53 -13 19 -43 26 -62 13z"/>
<path d="M2948 2809 c-33 -19 -13 -79 26 -79 10 0 36 32 36 45 0 14 -27 45
-38 45 -4 0 -15 -5 -24 -11z"/>
<path d="M5035 3006 c-41 -18 -92 -77 -104 -123 -6 -21 -11 -62 -11 -90 l0
-53 91 0 c82 0 91 -2 86 -17 -3 -10 -19 -56 -37 -103 -40 -109 -41 -152 -6
-189 25 -26 26 -31 17 -72 -20 -86 -19 -89 49 -89 67 0 65 -3 48 80 -11 55
-11 57 17 84 24 24 27 33 22 69 -4 31 -14 49 -37 68 l-32 27 29 68 28 69 58 3
57 3 0 64 c0 35 -5 76 -11 92 -14 38 -67 92 -106 109 -40 17 -118 17 -158 0z"/>
<path d="M7056 2635 c-24 -24 -6 -60 30 -60 23 0 30 5 32 24 3 15 -3 30 -14
38 -23 17 -29 16 -48 -2z"/>
<path d="M3066 2604 c-22 -21 -20 -40 6 -58 27 -19 58 -5 58 27 0 43 -35 60
-64 31z"/>
<path d="M3770 2077 c0 -7 6 -21 13 -30 21 -29 285 -126 515 -190 l52 -15 34
39 c27 32 39 39 69 39 21 0 38 3 38 8 10 62 14 58 -82 81 l-90 22 -82 -44
c-77 -41 -85 -43 -113 -31 -34 16 -345 134 -350 134 -2 0 -4 -6 -4 -13z"/>
<path d="M4530 1947 c0 -30 4 -35 33 -43 30 -9 32 -13 35 -57 2 -36 7 -47 20
-47 9 0 34 -3 55 -6 l37 -7 0 87 0 86 -30 0 c-17 0 -42 -7 -55 -16 -15 -10
-25 -12 -25 -5 0 6 8 11 17 11 31 0 -1 17 -44 24 l-43 6 0 -33z"/>
<path d="M4760 1865 c0 -69 3 -85 15 -85 12 0 15 16 15 85 0 69 -3 85 -15 85
-12 0 -15 -16 -15 -85z"/>
<path d="M5415 1896 c-23 -17 -16 -60 11 -64 26 -4 48 21 39 47 -8 25 -29 33
-50 17z"/>
<path d="M5695 1889 c-74 -15 -94 -24 -112 -46 -13 -16 -23 -32 -23 -37 0 -12
166 15 284 45 l39 11 -39 23 c-46 28 -35 28 -149 4z"/>
<path d="M6797 2413 c-11 -11 -8 -48 5 -61 32 -32 80 8 58 48 -10 19 -49 27
-63 13z"/>
<path d="M6576 2354 c-19 -19 -20 -36 -4 -52 17 -17 46 -15 56 6 19 36 -24 75
-52 46z"/>
</g>
</svg>
